# xmcd CD database file
#
# Track frame offsets:
#	150
#	3402
#	8455
#	28175
#	45468
#	50965
#	75157
#	90943
#	104205
#	121094
#	137469
#	159484
#	181881
#	200219
#
# Disc length: 3039 seconds
#
# Revision: 0
# Processed by: cddbd v1.5.1PL2 Copyright (c) Steve Scherf et al.
# Submitted via: CDex 1.51
#
DISCID=a70bdd0e
DTITLE=carriere - 桜華 sofmap特典 ドラマCD 「沙雪酒乱地獄編」
DYEAR=2005
DGENRE=Game
TTITLE0=sayuki_tr1
TTITLE1=sayuki_tr2
TTITLE2=sayuki_tr3
TTITLE3=sayuki_tr4
TTITLE4=sayuki_tr5
TTITLE5=sayuki_tr6
TTITLE6=BGM_001
TTITLE7=BGM_002
TTITLE8=BGM_003
TTITLE9=BGM_004
TTITLE10=BGM_005
TTITLE11=BGM_006
TTITLE12=BGM_007
TTITLE13=BGM_008
EXTD=YEAR: 2005
EXTT0=
EXTT1=
EXTT2=
EXTT3=
EXTT4=
EXTT5=
EXTT6=
EXTT7=
EXTT8=
EXTT9=
EXTT10=
EXTT11=
EXTT12=
EXTT13=
PLAYORDER=
